# xmcd CD database file
#
# Track frame offsets:
#	150
#	13957
#	29353
#	36280
#	50234
#	58447
#	86134
#	94111
#	102861
#	130433
#	158064
#	175515
#	197199
#	212379
#	249346
#	278289
#
# Disc length: 3877 seconds
#
# Revision: 0
# Processed by: cddbd v1.5.2PL0 Copyright (c) Steve Scherf et al.
# Submitted via: cdripper 1,0,33,916
#
DISCID=de0f2310
DTITLE=George Winston - Ballads And Blues 1972
DYEAR=1972
DGENRE=New Age
TTITLE0=Highway Hymn Blues
TTITLE1=Song
TTITLE2=Go 'Way From My Window
TTITLE3=The Weeds East Of Deland
TTITLE4=Brenda's Blues
TTITLE5=Miles City Train
TTITLE6=New Hope Blues
TTITLE7=Theme For A Futuristic Movie
TTITLE8=Rag
TTITLE9=Untitled
TTITLE10=Blues In G
TTITLE11=You Don't Love Me
TTITLE12=Elcina's Grandmother's Rag
TTITLE13=Variations On Song For Kurt
TTITLE14=Bright Light Waltz
TTITLE15=Data Track
EXTD=YEAR: 1972
EXTT0=
EXTT1=
EXTT2=
EXTT3=
EXTT4=
EXTT5=
EXTT6=
EXTT7=
EXTT8=
EXTT9=
EXTT10=
EXTT11=
EXTT12=
EXTT13=
EXTT14=
EXTT15=
PLAYORDER=
